<svg xmlns="http://www.w3.org/2000/svg" xmlns:xlink="http://www.w3.org/1999/xlink" width="200" height="200" preserveAspectRatio="xMidYMid" viewBox="0 0 100 100" style="shape-rendering:auto;display:block;background:0 0"><g><g transform="rotate(0 50 50)"><rect width="8" height="13" x="46" y="23.5" fill="#000" rx="2.08" ry="2.08"><animate attributeName="opacity" begin="-0.6685432793807178s" dur="0.6802721088435374s" keyTimes="0;1" repeatCount="indefinite" values="1;0"/></rect></g><g transform="rotate(6.206896551724138 50 50)"><rect width="8" height="13" x="46" y="23.5" fill="#000" rx="2.08" ry="2.08"><animate attributeName="opacity" begin="-0.6568144499178982s" dur="0.6802721088435374s" keyTimes="0;1" repeatCount="indefinite" values="1;0"/></rect></g><g transform="rotate(12.413793103448276 50 50)"><rect width="8" height="13" x="46" y="23.5" fill="#000" rx="2.08" ry="2.08"><animate attributeName="opacity" begin="-0.6450856204550786s" dur="0.6802721088435374s" keyTimes="0;1" repeatCount="indefinite" values="1;0"/></rect></g><g transform="rotate(18.620689655172413 50 50)"><rect width="8" height="13" x="46" y="23.5" fill="#000" rx="2.08" ry="2.08"><animate attributeName="opacity" begin="-0.633356790992259s" dur="0.6802721088435374s" keyTimes="0;1" repeatCount="indefinite" values="1;0"/></rect></g><g transform="rotate(24.82758620689655 50 50)"><rect width="8" height="13" x="46" y="23.5" fill="#000" rx="2.08" ry="2.08"><animate attributeName="opacity" begin="-0.6216279615294393s" dur="0.6802721088435374s" keyTimes="0;1" repeatCount="indefinite" values="1;0"/></rect></g><g transform="rotate(31.03448275862069 50 50)"><rect width="8" height="13" x="46" y="23.5" fill="#000" rx="2.08" ry="2.08"><animate attributeName="opacity" begin="-0.6098991320666197s" dur="0.6802721088435374s" keyTimes="0;1" repeatCount="indefinite" values="1;0"/></rect></g><g transform="rotate(37.241379310344826 50 50)"><rect width="8" height="13" x="46" y="23.5" fill="#000" rx="2.08" ry="2.08"><animate attributeName="opacity" begin="-0.5981703026038001s" dur="0.6802721088435374s" keyTimes="0;1" repeatCount="indefinite" values="1;0"/></rect></g><g transform="rotate(43.44827586206897 50 50)"><rect width="8" height="13" x="46" y="23.5" fill="#000" rx="2.08" ry="2.08"><animate attributeName="opacity" begin="-0.5864414731409805s" dur="0.6802721088435374s" keyTimes="0;1" repeatCount="indefinite" values="1;0"/></rect></g><g transform="rotate(49.6551724137931 50 50)"><rect width="8" height="13" x="46" y="23.5" fill="#000" rx="2.08" ry="2.08"><animate attributeName="opacity" begin="-0.5747126436781609s" dur="0.6802721088435374s" keyTimes="0;1" repeatCount="indefinite" values="1;0"/></rect></g><g transform="rotate(55.86206896551724 50 50)"><rect width="8" height="13" x="46" y="23.5" fill="#000" rx="2.08" ry="2.08"><animate attributeName="opacity" begin="-0.5629838142153413s" dur="0.6802721088435374s" keyTimes="0;1" repeatCount="indefinite" values="1;0"/></rect></g><g transform="rotate(62.06896551724138 50 50)"><rect width="8" height="13" x="46" y="23.5" fill="#000" rx="2.08" ry="2.08"><animate attributeName="opacity" begin="-0.5512549847525217s" dur="0.6802721088435374s" keyTimes="0;1" repeatCount="indefinite" values="1;0"/></rect></g><g transform="rotate(68.27586206896552 50 50)"><rect width="8" height="13" x="46" y="23.5" fill="#000" rx="2.08" ry="2.08"><animate attributeName="opacity" begin="-0.539526155289702s" dur="0.6802721088435374s" keyTimes="0;1" repeatCount="indefinite" values="1;0"/></rect></g><g transform="rotate(74.48275862068965 50 50)"><rect width="8" height="13" x="46" y="23.5" fill="#000" rx="2.08" ry="2.08"><animate attributeName="opacity" begin="-0.5277973258268824s" dur="0.6802721088435374s" keyTimes="0;1" repeatCount="indefinite" values="1;0"/></rect></g><g transform="rotate(80.6896551724138 50 50)"><rect width="8" height="13" x="46" y="23.5" fill="#000" rx="2.08" ry="2.08"><animate attributeName="opacity" begin="-0.5160684963640628s" dur="0.6802721088435374s" keyTimes="0;1" repeatCount="indefinite" values="1;0"/></rect></g><g transform="rotate(86.89655172413794 50 50)"><rect width="8" height="13" x="46" y="23.5" fill="#000" rx="2.08" ry="2.08"><animate attributeName="opacity" begin="-0.5043396669012432s" dur="0.6802721088435374s" keyTimes="0;1" repeatCount="indefinite" values="1;0"/></rect></g><g transform="rotate(93.10344827586206 50 50)"><rect width="8" height="13" x="46" y="23.5" fill="#000" rx="2.08" ry="2.08"><animate attributeName="opacity" begin="-0.4926108374384236s" dur="0.6802721088435374s" keyTimes="0;1" repeatCount="indefinite" values="1;0"/></rect></g><g transform="rotate(99.3103448275862 50 50)"><rect width="8" height="13" x="46" y="23.5" fill="#000" rx="2.08" ry="2.08"><animate attributeName="opacity" begin="-0.480882007975604s" dur="0.6802721088435374s" keyTimes="0;1" repeatCount="indefinite" values="1;0"/></rect></g><g transform="rotate(105.51724137931035 50 50)"><rect width="8" height="13" x="46" y="23.5" fill="#000" rx="2.08" ry="2.08"><animate attributeName="opacity" begin="-0.4691531785127844s" dur="0.6802721088435374s" keyTimes="0;1" repeatCount="indefinite" values="1;0"/></rect></g><g transform="rotate(111.72413793103448 50 50)"><rect width="8" height="13" x="46" y="23.5" fill="#000" rx="2.08" ry="2.08"><animate attributeName="opacity" begin="-0.45742434904996476s" dur="0.6802721088435374s" keyTimes="0;1" repeatCount="indefinite" values="1;0"/></rect></g><g transform="rotate(117.93103448275862 50 50)"><rect width="8" height="13" x="46" y="23.5" fill="#000" rx="2.08" ry="2.08"><animate attributeName="opacity" begin="-0.44569551958714515s" dur="0.6802721088435374s" keyTimes="0;1" repeatCount="indefinite" values="1;0"/></rect></g><g transform="rotate(124.13793103448276 50 50)"><rect width="8" height="13" x="46" y="23.5" fill="#000" rx="2.08" ry="2.08"><animate attributeName="opacity" begin="-0.4339666901243256s" dur="0.6802721088435374s" keyTimes="0;1" repeatCount="indefinite" values="1;0"/></rect></g><g transform="rotate(130.3448275862069 50 50)"><rect width="8" height="13" x="46" y="23.5" fill="#000" rx="2.08" ry="2.08"><animate attributeName="opacity" begin="-0.422237860661506s" dur="0.6802721088435374s" keyTimes="0;1" repeatCount="indefinite" values="1;0"/></rect></g><g transform="rotate(136.55172413793105 50 50)"><rect width="8" height="13" x="46" y="23.5" fill="#000" rx="2.08" ry="2.08"><animate attributeName="opacity" begin="-0.41050903119868637s" dur="0.6802721088435374s" keyTimes="0;1" repeatCount="indefinite" values="1;0"/></rect></g><g transform="rotate(142.75862068965517 50 50)"><rect width="8" height="13" x="46" y="23.5" fill="#000" rx="2.08" ry="2.08"><animate attributeName="opacity" begin="-0.39878020173586676s" dur="0.6802721088435374s" keyTimes="0;1" repeatCount="indefinite" values="1;0"/></rect></g><g transform="rotate(148.9655172413793 50 50)"><rect width="8" height="13" x="46" y="23.5" fill="#000" rx="2.08" ry="2.08"><animate attributeName="opacity" begin="-0.38705137227304715s" dur="0.6802721088435374s" keyTimes="0;1" repeatCount="indefinite" values="1;0"/></rect></g><g transform="rotate(155.17241379310346 50 50)"><rect width="8" height="13" x="46" y="23.5" fill="#000" rx="2.08" ry="2.08"><animate attributeName="opacity" begin="-0.37532254281022753s" dur="0.6802721088435374s" keyTimes="0;1" repeatCount="indefinite" values="1;0"/></rect></g><g transform="rotate(161.3793103448276 50 50)"><rect width="8" height="13" x="46" y="23.5" fill="#000" rx="2.08" ry="2.08"><animate attributeName="opacity" begin="-0.3635937133474079s" dur="0.6802721088435374s" keyTimes="0;1" repeatCount="indefinite" values="1;0"/></rect></g><g transform="rotate(167.58620689655172 50 50)"><rect width="8" height="13" x="46" y="23.5" fill="#000" rx="2.08" ry="2.08"><animate attributeName="opacity" begin="-0.3518648838845883s" dur="0.6802721088435374s" keyTimes="0;1" repeatCount="indefinite" values="1;0"/></rect></g><g transform="rotate(173.79310344827587 50 50)"><rect width="8" height="13" x="46" y="23.5" fill="#000" rx="2.08" ry="2.08"><animate attributeName="opacity" begin="-0.3401360544217687s" dur="0.6802721088435374s" keyTimes="0;1" repeatCount="indefinite" values="1;0"/></rect></g><g transform="rotate(180 50 50)"><rect width="8" height="13" x="46" y="23.5" fill="#000" rx="2.08" ry="2.08"><animate attributeName="opacity" begin="-0.3284072249589491s" dur="0.6802721088435374s" keyTimes="0;1" repeatCount="indefinite" values="1;0"/></rect></g><g transform="rotate(186.20689655172413 50 50)"><rect width="8" height="13" x="46" y="23.5" fill="#000" rx="2.08" ry="2.08"><animate attributeName="opacity" begin="-0.3166783954961295s" dur="0.6802721088435374s" keyTimes="0;1" repeatCount="indefinite" values="1;0"/></rect></g><g transform="rotate(192.41379310344828 50 50)"><rect width="8" height="13" x="46" y="23.5" fill="#000" rx="2.08" ry="2.08"><animate attributeName="opacity" begin="-0.30494956603330986s" dur="0.6802721088435374s" keyTimes="0;1" repeatCount="indefinite" values="1;0"/></rect></g><g transform="rotate(198.6206896551724 50 50)"><rect width="8" height="13" x="46" y="23.5" fill="#000" rx="2.08" ry="2.08"><animate attributeName="opacity" begin="-0.29322073657049025s" dur="0.6802721088435374s" keyTimes="0;1" repeatCount="indefinite" values="1;0"/></rect></g><g transform="rotate(204.82758620689654 50 50)"><rect width="8" height="13" x="46" y="23.5" fill="#000" rx="2.08" ry="2.08"><animate attributeName="opacity" begin="-0.28149190710767064s" dur="0.6802721088435374s" keyTimes="0;1" repeatCount="indefinite" values="1;0"/></rect></g><g transform="rotate(211.0344827586207 50 50)"><rect width="8" height="13" x="46" y="23.5" fill="#000" rx="2.08" ry="2.08"><animate attributeName="opacity" begin="-0.269763077644851s" dur="0.6802721088435374s" keyTimes="0;1" repeatCount="indefinite" values="1;0"/></rect></g><g transform="rotate(217.24137931034483 50 50)"><rect width="8" height="13" x="46" y="23.5" fill="#000" rx="2.08" ry="2.08"><animate attributeName="opacity" begin="-0.2580342481820314s" dur="0.6802721088435374s" keyTimes="0;1" repeatCount="indefinite" values="1;0"/></rect></g><g transform="rotate(223.44827586206895 50 50)"><rect width="8" height="13" x="46" y="23.5" fill="#000" rx="2.08" ry="2.08"><animate attributeName="opacity" begin="-0.2463054187192118s" dur="0.6802721088435374s" keyTimes="0;1" repeatCount="indefinite" values="1;0"/></rect></g><g transform="rotate(229.6551724137931 50 50)"><rect width="8" height="13" x="46" y="23.5" fill="#000" rx="2.08" ry="2.08"><animate attributeName="opacity" begin="-0.2345765892563922s" dur="0.6802721088435374s" keyTimes="0;1" repeatCount="indefinite" values="1;0"/></rect></g><g transform="rotate(235.86206896551724 50 50)"><rect width="8" height="13" x="46" y="23.5" fill="#000" rx="2.08" ry="2.08"><animate attributeName="opacity" begin="-0.22284775979357258s" dur="0.6802721088435374s" keyTimes="0;1" repeatCount="indefinite" values="1;0"/></rect></g><g transform="rotate(242.06896551724137 50 50)"><rect width="8" height="13" x="46" y="23.5" fill="#000" rx="2.08" ry="2.08"><animate attributeName="opacity" begin="-0.211118930330753s" dur="0.6802721088435374s" keyTimes="0;1" repeatCount="indefinite" values="1;0"/></rect></g><g transform="rotate(248.27586206896552 50 50)"><rect width="8" height="13" x="46" y="23.5" fill="#000" rx="2.08" ry="2.08"><animate attributeName="opacity" begin="-0.19939010086793338s" dur="0.6802721088435374s" keyTimes="0;1" repeatCount="indefinite" values="1;0"/></rect></g><g transform="rotate(254.48275862068965 50 50)"><rect width="8" height="13" x="46" y="23.5" fill="#000" rx="2.08" ry="2.08"><animate attributeName="opacity" begin="-0.18766127140511377s" dur="0.6802721088435374s" keyTimes="0;1" repeatCount="indefinite" values="1;0"/></rect></g><g transform="rotate(260.6896551724138 50 50)"><rect width="8" height="13" x="46" y="23.5" fill="#000" rx="2.08" ry="2.08"><animate attributeName="opacity" begin="-0.17593244194229415s" dur="0.6802721088435374s" keyTimes="0;1" repeatCount="indefinite" values="1;0"/></rect></g><g transform="rotate(266.8965517241379 50 50)"><rect width="8" height="13" x="46" y="23.5" fill="#000" rx="2.08" ry="2.08"><animate attributeName="opacity" begin="-0.16420361247947454s" dur="0.6802721088435374s" keyTimes="0;1" repeatCount="indefinite" values="1;0"/></rect></g><g transform="rotate(273.1034482758621 50 50)"><rect width="8" height="13" x="46" y="23.5" fill="#000" rx="2.08" ry="2.08"><animate attributeName="opacity" begin="-0.15247478301665493s" dur="0.6802721088435374s" keyTimes="0;1" repeatCount="indefinite" values="1;0"/></rect></g><g transform="rotate(279.3103448275862 50 50)"><rect width="8" height="13" x="46" y="23.5" fill="#000" rx="2.08" ry="2.08"><animate attributeName="opacity" begin="-0.14074595355383532s" dur="0.6802721088435374s" keyTimes="0;1" repeatCount="indefinite" values="1;0"/></rect></g><g transform="rotate(285.51724137931035 50 50)"><rect width="8" height="13" x="46" y="23.5" fill="#000" rx="2.08" ry="2.08"><animate attributeName="opacity" begin="-0.1290171240910157s" dur="0.6802721088435374s" keyTimes="0;1" repeatCount="indefinite" values="1;0"/></rect></g><g transform="rotate(291.7241379310345 50 50)"><rect width="8" height="13" x="46" y="23.5" fill="#000" rx="2.08" ry="2.08"><animate attributeName="opacity" begin="-0.1172882946281961s" dur="0.6802721088435374s" keyTimes="0;1" repeatCount="indefinite" values="1;0"/></rect></g><g transform="rotate(297.9310344827586 50 50)"><rect width="8" height="13" x="46" y="23.5" fill="#000" rx="2.08" ry="2.08"><animate attributeName="opacity" begin="-0.1055594651653765s" dur="0.6802721088435374s" keyTimes="0;1" repeatCount="indefinite" values="1;0"/></rect></g><g transform="rotate(304.13793103448273 50 50)"><rect width="8" height="13" x="46" y="23.5" fill="#000" rx="2.08" ry="2.08"><animate attributeName="opacity" begin="-0.09383063570255688s" dur="0.6802721088435374s" keyTimes="0;1" repeatCount="indefinite" values="1;0"/></rect></g><g transform="rotate(310.3448275862069 50 50)"><rect width="8" height="13" x="46" y="23.5" fill="#000" rx="2.08" ry="2.08"><animate attributeName="opacity" begin="-0.08210180623973727s" dur="0.6802721088435374s" keyTimes="0;1" repeatCount="indefinite" values="1;0"/></rect></g><g transform="rotate(316.55172413793105 50 50)"><rect width="8" height="13" x="46" y="23.5" fill="#000" rx="2.08" ry="2.08"><animate attributeName="opacity" begin="-0.07037297677691766s" dur="0.6802721088435374s" keyTimes="0;1" repeatCount="indefinite" values="1;0"/></rect></g><g transform="rotate(322.7586206896552 50 50)"><rect width="8" height="13" x="46" y="23.5" fill="#000" rx="2.08" ry="2.08"><animate attributeName="opacity" begin="-0.05864414731409805s" dur="0.6802721088435374s" keyTimes="0;1" repeatCount="indefinite" values="1;0"/></rect></g><g transform="rotate(328.9655172413793 50 50)"><rect width="8" height="13" x="46" y="23.5" fill="#000" rx="2.08" ry="2.08"><animate attributeName="opacity" begin="-0.04691531785127844s" dur="0.6802721088435374s" keyTimes="0;1" repeatCount="indefinite" values="1;0"/></rect></g><g transform="rotate(335.17241379310343 50 50)"><rect width="8" height="13" x="46" y="23.5" fill="#000" rx="2.08" ry="2.08"><animate attributeName="opacity" begin="-0.03518648838845883s" dur="0.6802721088435374s" keyTimes="0;1" repeatCount="indefinite" values="1;0"/></rect></g><g transform="rotate(341.37931034482756 50 50)"><rect width="8" height="13" x="46" y="23.5" fill="#000" rx="2.08" ry="2.08"><animate attributeName="opacity" begin="-0.02345765892563922s" dur="0.6802721088435374s" keyTimes="0;1" repeatCount="indefinite" values="1;0"/></rect></g><g transform="rotate(347.58620689655174 50 50)"><rect width="8" height="13" x="46" y="23.5" fill="#000" rx="2.08" ry="2.08"><animate attributeName="opacity" begin="-0.01172882946281961s" dur="0.6802721088435374s" keyTimes="0;1" repeatCount="indefinite" values="1;0"/></rect></g><g transform="rotate(353.7931034482759 50 50)"><rect width="8" height="13" x="46" y="23.5" fill="#000" rx="2.08" ry="2.08"><animate attributeName="opacity" begin="0s" dur="0.6802721088435374s" keyTimes="0;1" repeatCount="indefinite" values="1;0"/></rect></g></g></svg>