<svg xmlns="http://www.w3.org/2000/svg" version="1.1" xmlns:xlink="http://www.w3.org/1999/xlink" xmlns:svgjs="http://svgjs.dev/svgjs" viewBox="0 0 800 400"><path d="M173.65589904785156,130.10752868652344C171.24102508544922,129.0725817235311,160.24341725667318,122.96295986175537,154.8386993408203,122.04300689697266C149.43398142496744,121.12305393218995,135.45101090749105,119.94921909332275,131.5412139892578,122.9390640258789C127.63141707102457,125.92890895843506,125.98266628265381,140.16576897939046,124.37274932861328,145.3404998779297C122.76283237457275,150.5152307764689,117.38648960113525,159.696828511556,118.99640655517578,163.2616424560547C120.60632350921631,166.82645640055338,131.62783186594646,171.04837890625,136.9175567626953,173.11827087402344C142.20728165944416,175.18816284179687,154.92531819661457,177.89574684143065,160.2150421142578,179.3906707763672C165.50476603190106,180.88559471130372,175.37632873535156,181.43220090230307,178.1361846923828,184.76702880859375C180.89604064941406,188.10185671488443,181.14544321695965,201.00657084147136,181.7204132080078,205.3763427734375C182.29538319905598,209.74611470540364,183.9963983154297,215.13739176432293,182.61647033691406,218.81719970703125C181.23654235839842,222.49700764973957,176.60243357340494,230.71534299214682,170.9677276611328,234.0501708984375C165.3330217488607,237.38499880472818,146.06928788503012,243.76792572021483,138.7096710205078,244.80287170410156C131.3500541559855,245.8378176879883,119.02478365580241,243.83959698994954,113.62006378173828,242.11468505859375C108.21534390767415,240.38977312723796,100.15978562672933,234.6968254597982,96.594970703125,231.36199951171875C93.03015577952067,228.0271735636393,78.48266731262207,214.97908833821614,85.84228515625,216.1290283203125C93.20190299987793,217.27896830240886,140.25835250854493,245.84228467305502,153.94264221191406,240.32257080078125C167.6269319152832,234.80285692850748,185.3434841664632,181.74282269795737,192.47311401367188,173.11827087402344C199.60274386088054,164.4937190500895,205.93338551839193,173.11827087402344,209.49819946289062,173.11827087402344C213.06301340738932,173.11827087402344,215.9961070760091,174.0382228597005,220.25088500976562,173.11827087402344C224.50566294352214,172.19831888834636,238.8575112915039,168.8246637980143,242.65231323242188,165.94981384277344C246.44711517333985,163.07496388753256,246.14096232096355,151.17681864420572,249.82077026367188,150.7168426513672C253.5005782063802,150.25686665852865,267.87632141113284,160.41068735758464,271.3261413574219,162.36558532714844C274.7759613037109,164.32048329671224,274.8625762430827,163.64993387858073,276.7024841308594,165.94981384277344C278.54239201863606,168.24969380696615,283.59319005330406,177.7568579864502,285.6630859375,180.28672790527344C287.73298182169594,182.81659782409668,290.6466570027669,185.2031079864502,292.83154296875,185.6630859375C295.0164289347331,186.1230638885498,299.9283154296875,186.86081759134927,302.68817138671875,183.8709716796875C305.44802734375,180.88112576802573,310.7721001180013,165.24043724060058,314.3369140625,162.36558532714844C317.9017280069987,159.4907334136963,327.2461104329427,160.89455820719402,330.4659423828125,161.4695281982422C333.6857743326823,162.04449818929035,336.43666971842447,164.77597900390626,339.426513671875,166.8458709716797C342.41635762532553,168.91576293945312,350.65858978271484,175.6436565907796,353.763427734375,177.5985565185547C356.86826568603516,179.55345644632976,360.5152182006836,182.19385142008463,363.62005615234375,182.078857421875C366.7248941040039,181.96386342366537,373.01222829182944,178.77239331563314,377.95697021484375,176.70249938964844C382.90171213785806,174.63260546366374,396.86078486124677,167.7897178141276,402.1505126953125,165.94981384277344C407.44024052937823,164.10990987141926,415.03584081014,163.2855373128255,419.1756286621094,162.36558532714844C423.3154165140788,161.44563334147136,430.498803914388,159.47132080078126,434.4085998535156,158.78135681152344C438.31839579264323,158.09139282226562,447.5716790771484,156.98924255371094,449.6415710449219,156.98924255371094C451.71146301269533,156.98924255371094,448.35274220784504,156.94145284016926,450.5376281738281,158.78135681152344C452.7225141398112,160.6212607828776,462.9868485514323,167.30136472066243,466.6666564941406,171.32615661621094C470.346464436849,175.35094851175944,476.68158833821616,187.2685196685791,479.2114562988281,190.14337158203125C481.7413242594401,193.0182234954834,484.0800333658854,192.23267812093098,486.3799133300781,193.72760009765625C488.67979329427084,195.22252207438152,495.292694905599,210.8766430536906,497.1325988769531,201.7921142578125C498.9725028483073,192.7075854619344,500.0268634033203,131.90859784444174,500.7168273925781,122.9390640258789C501.40679138183594,113.96953020731608,499.8640757751465,123.16009614308675,502.5089416503906,131.89964294433594C505.15380752563476,140.63918974558513,521.9011418660482,187.35962076822918,521.326171875,191.0394287109375C520.7512018839518,194.71923665364582,501.01850387573245,165.1732329559326,498.0286560058594,160.57347106933594C495.0388081359863,155.97370918273927,496.9937100219727,152.3222763824463,498.0286560058594,155.19712829589844C499.0636019897461,158.07198020935058,505.0582241821289,179.29510464986166,506.0931701660156,182.97491455078125C507.1281161499023,186.65472445170084,506.0931701660156,183.75597768147787,506.0931701660156,183.8709716796875" fill="none" stroke-width="4" stroke="url(&quot;#SvgjsLinearGradient1003&quot;)" stroke-linecap="round" stroke-dasharray="0 0"></path><defs><linearGradient id="SvgjsLinearGradient1003"><stop stop-color="hsl(172, 99%, 67%)" offset="0"></stop><stop stop-color="hsl(198, 95%, 47%)" offset="1"></stop></linearGradient></defs></svg>